<?xml version="1.0" encoding="UTF-8"?>
<!DOCTYPE svg PUBLIC "-//W3C//DTD SVG 1.1//EN" "http://www.w3.org/Graphics/SVG/1.1/DTD/svg11.dtd">
<svg xmlns="http://www.w3.org/2000/svg" version="1.1" width="400px" height="420px" style="shape-rendering:geometricPrecision; text-rendering:geometricPrecision; image-rendering:optimizeQuality; fill-rule:evenodd; clip-rule:evenodd" xmlns:xlink="http://www.w3.org/1999/xlink">
<g><path style="opacity:0.999" fill="#ed1d24" d="M -0.5,-0.5 C 132.833,-0.5 266.167,-0.5 399.5,-0.5C 399.5,139.5 399.5,279.5 399.5,419.5C 266.167,419.5 132.833,419.5 -0.5,419.5C -0.5,279.5 -0.5,139.5 -0.5,-0.5 Z"/></g>
<g><path style="opacity:1" fill="#fefefe" d="M 246.5,384.5 C 246.667,328.166 246.5,271.832 246,215.5C 244.812,216.563 244.312,217.897 244.5,219.5C 243.735,222.096 243.401,224.763 243.5,227.5C 234.292,279.749 225.625,332.083 217.5,384.5C 205.833,384.5 194.167,384.5 182.5,384.5C 173.825,329.452 164.825,274.452 155.5,219.5C 155.539,218.244 155.039,217.244 154,216.5C 153.5,272.499 153.333,328.499 153.5,384.5C 132.5,384.5 111.5,384.5 90.5,384.5C 90.5,267.167 90.5,149.833 90.5,32.5C 117.741,32.1717 144.907,32.505 172,33.5C 180.794,90.4703 189.46,147.47 198,204.5C 198.667,206.5 199.333,208.5 200,210.5C 209.992,151.23 219.492,91.897 228.5,32.5C 255.5,32.5 282.5,32.5 309.5,32.5C 309.5,149.833 309.5,267.167 309.5,384.5C 288.5,384.5 267.5,384.5 246.5,384.5 Z"/></g>
<g><path style="opacity:1" fill="#fbdadb" d="M 246.5,384.5 C 246.167,384.5 245.833,384.5 245.5,384.5C 245.832,329.331 245.499,274.331 244.5,219.5C 244.312,217.897 244.812,216.563 246,215.5C 246.5,271.832 246.667,328.166 246.5,384.5 Z"/></g>
<g><path style="opacity:1" fill="#f8b6b9" d="M 155.5,219.5 C 154.833,274.5 154.167,329.5 153.5,384.5C 153.333,328.499 153.5,272.499 154,216.5C 155.039,217.244 155.539,218.244 155.5,219.5 Z"/></g>
<g><path style="opacity:1" fill="#ee3339" d="M 244.5,219.5 C 245.499,274.331 245.832,329.331 245.5,384.5C 244.833,332.167 244.167,279.833 243.5,227.5C 243.401,224.763 243.735,222.096 244.5,219.5 Z"/></g>
</svg>
